<svg width="24" height="24" viewBox="0 0 24 24" fill="none" xmlns="http://www.w3.org/2000/svg">
<path d="M7 10C6.44771 10 6 10.4477 6 11C6 11.5523 6.44771 12 7 12H8C8.55229 12 9 11.5523 9 11C9 10.4477 8.55229 10 8 10H7Z" fill="#004186"/>
<path d="M7 14C6.44771 14 6 14.4477 6 15C6 15.5523 6.44771 16 7 16H8C8.55229 16 9 15.5523 9 15C9 14.4477 8.55229 14 8 14H7Z" fill="#004186"/>
<path fill-rule="evenodd" clip-rule="evenodd" d="M17 4H20C21.1046 4 22 4.89543 22 6V20C22 21.1046 21.1046 22 20 22H4C2.89543 22 2 21.1046 2 20V6C2 4.89543 2.89543 4 4 4H7V3C7 2.44772 7.44772 2 8 2C8.55228 2 9 2.44772 9 3V4H15V3C15 2.44772 15.4477 2 16 2C16.5523 2 17 2.44772 17 3V4ZM4 8.5C4 8.22386 4.22386 8 4.5 8H19.5C19.7761 8 20 8.22386 20 8.5V19.5C20 19.7761 19.7761 20 19.5 20H4.5C4.22386 20 4 19.7761 4 19.5V8.5Z" fill="#004186"/>
<path d="M11.5 10C10.9477 10 10.5 10.4477 10.5 11C10.5 11.5523 10.9477 12 11.5 12H12.5C13.0523 12 13.5 11.5523 13.5 11C13.5 10.4477 13.0523 10 12.5 10H11.5Z" fill="#004186"/>
<path d="M11.5 14C10.9477 14 10.5 14.4477 10.5 15C10.5 15.5523 10.9477 16 11.5 16H12.5C13.0523 16 13.5 15.5523 13.5 15C13.5 14.4477 13.0523 14 12.5 14H11.5Z" fill="#004186"/>
<path d="M16 10C15.4477 10 15 10.4477 15 11C15 11.5523 15.4477 12 16 12H17C17.5523 12 18 11.5523 18 11C18 10.4477 17.5523 10 17 10H16Z" fill="#004186"/>
</svg>
